<?xml version="1.0" encoding="utf-8"?>
<!-- Generator: Adobe Illustrator 16.0.0, SVG Export Plug-In . SVG Version: 6.00 Build 0)  -->
<!DOCTYPE svg PUBLIC "-//W3C//DTD SVG 1.1//EN" "http://www.w3.org/Graphics/SVG/1.1/DTD/svg11.dtd">
<svg version="1.1" id="Capa_1" xmlns="http://www.w3.org/2000/svg" xmlns:xlink="http://www.w3.org/1999/xlink" x="0px" y="0px"
	 width="612px" height="612px" viewBox="0 0 612 612" enable-background="new 0 0 612 612" xml:space="preserve">
<g>
	<g>
		<path fill-rule="evenodd" clip-rule="evenodd" fill="#352F29" d="M8.109,296.507v20.851c0.227,0.357,1.132,15.076,1.196,16.678
			c0.194,4.893,1.15,11.277,1.966,15.907c1.92,10.887,3.24,20.145,5.839,30.205c4.542,17.583,11.37,38,18.9,52.889
			c7.824,15.471,16.296,32.313,26.396,45.395c2.645,3.426,4.947,6.831,7.583,10.291c2.615,3.433,5.727,6.752,8.124,10.046
			c4.121,5.662,12.074,13.712,17.203,18.842c5.188,5.188,12.877,12.774,18.662,17.084c3.421,2.547,6.393,5.394,9.887,7.986
			c3.525,2.615,7.022,5.043,10.468,7.702c13.134,10.141,29.913,18.633,45.359,26.432c7.366,3.719,17.118,7.583,25.277,10.468
			c9.093,3.216,17.847,5.53,27.575,8.47c8.984,2.713,20.114,4.324,30.189,5.854c4.376,0.664,11.059,1.878,15.856,2.018
			c1.635,0.047,16.61,0.958,16.979,1.191h20.852c0.356-0.227,15.076-1.132,16.678-1.195c4.894-0.195,11.276-1.15,15.905-1.967
			c10.888-1.92,20.146-3.239,30.206-5.839c17.615-4.549,37.976-11.356,52.891-18.9c15.47-7.822,32.313-16.295,45.394-26.395
			c3.426-2.645,6.831-4.946,10.292-7.583c3.433-2.614,6.752-5.726,10.045-8.123c5.663-4.121,13.712-12.075,18.842-17.203
			c5.188-5.188,12.775-12.878,17.084-18.663c2.548-3.42,5.395-6.391,7.986-9.886c2.617-3.525,5.045-7.022,7.702-10.468
			c10.141-13.134,18.634-29.913,26.433-45.359c3.691-7.312,7.604-17.184,10.468-25.277c1.468-4.149,2.818-9.371,4.422-13.451
			c1.71-4.354,2.468-9.518,4.047-14.124c1.369-3.993,2.238-10.177,3.28-14.593c1.166-4.937,1.782-10.379,2.573-15.597
			c0.666-4.375,1.88-11.058,2.019-15.855c0.048-1.635,0.959-16.611,1.191-16.979v-20.851c-0.232-0.369-1.144-15.345-1.191-16.979
			c-0.139-4.798-1.353-11.48-2.019-15.855c-0.791-5.218-1.407-10.661-2.573-15.598c-1.042-4.415-1.911-10.599-3.28-14.591
			c-1.588-4.631-2.359-9.691-4.051-14.12c-1.604-4.197-2.926-9.237-4.418-13.456c-2.863-8.094-6.776-17.966-10.468-25.278
			c-7.799-15.446-16.292-32.226-26.433-45.359c-2.657-3.445-5.085-6.942-7.702-10.468c-2.592-3.495-5.438-6.465-7.986-9.886
			c-4.309-5.786-11.896-13.474-17.084-18.662c-5.13-5.129-13.179-13.083-18.842-17.204c-3.293-2.397-6.612-5.509-10.045-8.124
			c-3.461-2.636-6.866-4.937-10.292-7.582c-13.081-10.1-29.924-18.573-45.394-26.396c-14.915-7.543-35.275-14.351-52.891-18.9
			c-10.06-2.599-19.318-3.918-30.206-5.838c-4.629-0.816-11.012-1.772-15.905-1.966c-1.602-0.064-16.321-0.97-16.678-1.196h-20.852
			c-0.369,0.233-15.344,1.144-16.979,1.191c-4.797,0.14-11.48,1.354-15.856,2.018c-9.975,1.514-21.279,3.164-30.189,5.855
			c-9.741,2.942-18.473,5.25-27.575,8.469c-8.16,2.885-17.912,6.749-25.277,10.468c-15.447,7.798-32.225,16.291-45.359,26.431
			c-3.445,2.659-6.943,5.087-10.468,7.703c-3.494,2.593-6.466,5.439-9.887,7.987c-5.785,4.308-13.474,11.896-18.662,17.084
			c-5.129,5.129-13.082,13.179-17.203,18.841c-2.397,3.294-5.509,6.614-8.124,10.046c-2.636,3.46-4.938,6.865-7.583,10.291
			c-10.099,13.082-18.572,29.925-26.396,45.395c-3.595,7.108-7.902,17.648-10.513,25.53c-1.391,4.199-2.844,9.359-4.457,13.417
			c-1.609,4.048-2.634,9.737-3.94,13.934c-2.805,9.011-4.046,20.107-5.83,30.214c-0.816,4.63-1.771,11.014-1.966,15.907
			C9.241,281.431,8.335,296.15,8.109,296.507L8.109,296.507z M304.205,56.412c0-3.635-8.046-17.013-8.341-20.554h7.447
			c1.157,0,2.402,5.294,2.798,6.437c0.478,1.376,1.94,6.036,1.968,7.266h0.596l4.302-13.363l8.209-0.042l-9.595,19.182l-0.234,12.99
			h-7.149V56.412L304.205,56.412z M332.206,57.008c0-9.172,5.451-17.873,14.299-17.873h4.169c1.515,0,4.606,1.229,5.66,1.788
			l-1.821,5.648c-1.712-0.134-3.181-1.478-5.922-1.478c-5.58,0-8.639,5.588-8.639,11.319v1.192c0,4.78,3.815,8.34,8.639,8.34h2.083
			c0.805,0,0.821-0.142,1.49-0.297v5.361c0,0.686-0.208,0.894-0.893,0.894h-4.47C338.205,71.902,332.206,65.631,332.206,57.008
			L332.206,57.008z M354.564,552.773l20.242-4.245c-0.005,4.689,1.369,2.116-0.064,7.372c-0.583,2.139-1.638,4.652-2.368,6.866
			c-0.858,2.601-4.241,11.567-4.422,13.749l12.185-2.518l1.31,6.073l-21.53,4.522c-0.006-1.854-0.604-2.311-0.604-3.907
			c0-1.148,3.312-10.376,3.911-12.175c0.701-2.102,3.691-10.244,3.835-11.953l-11.579,2.273L354.564,552.773L354.564,552.773z
			 M419.188,68.03c0.083-0.98,2.052-5.66,2.681-5.66c1.583,0,15.17,7.939,18.171,8.639c-0.415,4.997-6.75,7.679-10.246,10.009
			c-1.922,1.28-11.407,7.001-11.797,8.459c1.17,0.272,10.724,4.862,10.724,5.362c0,0.195-2.108,4.79-2.382,5.362l-19.674-9.507
			c1.116-4.768,6.923-7.214,10.618-9.676c1.813-1.209,11.39-7.344,12.033-8.222L419.188,68.03L419.188,68.03z M250.792,584.543
			l5.566-31.838l17.438,3.091l-1.064,5.847l-10.227-1.537c-0.004,2.854-2.461,6.164,0.756,6.714
			c2.919,0.501,5.037,0.764,7.581,1.357l-0.771,5.677l-1.016-0.019c-2.143,0-6.25-1.488-8.936-1.488l-0.993,7.433l10.52,1.829
			l-0.786,5.946L250.792,584.543L250.792,584.543z M385.229,74.881c0-7.834,6.424-17.476,8.043-24.426l6.824,2.455
			c-0.938,4.066-7.719,18.537-7.719,21.079v2.979c0,1.137,1.948,2.681,3.276,2.681h0.895c3.786,0,5.754-7.594,7.03-10.843
			c1.6-4.072,3.11-8.989,4.884-12.689l6.856,2.671c-3.494,6.607-7.591,27.117-16.09,27.117h-3.575
			c-3.961,0-10.425-4.758-10.425-8.639V74.881L385.229,74.881z M176.115,77.562c0-3.875,2.842-8.819,5.063-10.427
			c1.924-1.394,7.084-5.063,10.129-5.063h2.085l1.171,5.962c-5.015-0.004-11.001,3.792-11.001,8.635v0.595
			c0,4.433,4.61,11.916,8.639,11.916h2.085c1.695,0,3.773-1.136,4.468-2.085l-2.971-5.962c-0.526,0.278-2.767,1.493-3.285,1.493
			c-0.538,0-2.5-4.285-2.681-5.064l9.748-4.643c0.758,3.076,7.232,13.633,7.232,15.665c0,0.781-5.805,4.541-6.844,5.07
			c-2.583,1.315-5.344,2.376-9.241,2.376h-0.596c-3.359,0-7.848-3.637-9.418-5.773c-1.413-1.923-4.582-7.711-4.582-10.61V77.562
			L176.115,77.562z M380.782,546.197l8.599-2.802l17.838,28.201l-7.373,2.3l-3.953-6.577l-7.075,2.387l0.655,7.697l-7.165,2.266
			l-1.616-30.853L380.782,546.197L380.782,546.197z M273.409,587.231l2.319-30.962l7.621,0.38l8.627,22.256l0.561-18.477
			l0.051-2.977h2.979l3.867,0.344l0.005,1.146l-2.19,30.974l-7.337-0.372c-0.619-2.558-3.141-7.917-4.298-10.818
			c-0.593-1.485-4.047-10.199-4.047-11.145v-1.191h-0.596v6.553l-0.91,13.702l0.017,2.086l-3.268-0.365l-3.286,0.067
			L273.409,587.231L273.409,587.231z M363.187,49.263c0-1.363,0.871-6.255,2.085-6.255h0.893c5.586,0,17.278,4.031,17.278,9.234
			v2.085c0,4.451-3.312,8.546-7.447,8.638c3.623,5.411,2.086,6.029,2.086,13.703v2.382c-1.756,0-3.704-0.887-5.547-1.306
			c-2.486-0.564-1.604-2.178-1.604-5.247c0-6.299,1.21-7.981-4.17-9.235l-3.125,11.876l-6.975-1.557l6.036-23.397L363.187,49.263
			L363.187,49.263z M214.532,575.322l10.542-30.644c1.263,0.283,6.678,2.05,7.64,2.05h0.894v10.724l-0.569,11.917l10.741-19.639
			l8.563,2.182l-6.509,31.757l-1.523-0.553l-3.528-0.752l-1.452-0.619l5.112-22.847l-11.715,20.604l-5.354-1.286l-0.021-4.382
			l0.509-18.471l-6.884,21.412l-0.775,0.038C218.715,576.814,216.391,575.366,214.532,575.322L214.532,575.322z M265.48,51.944
			c0-7.621,5.104-14.894,12.213-14.894h0.895l3.571,0.327c3.745,2.476,4.209,1.3,7.1,5.684c1.199,1.819,3.032,6.888,3.032,9.777
			v3.873c0,7.235-5.068,13.405-12.213,13.405h-2.681c-6.659,0-11.915-9.02-11.915-16.085V51.944L265.48,51.944z M328.93,567.878
			c0-6.404,5.905-13.405,12.214-13.405h1.19c9.303,0,13.405,9.118,13.405,18.767v1.192c0,3.888-1.859,7.501-3.789,9.616
			c-1.361,1.49-6.331,4.161-9.319,3.789l-3.271-0.341c-3.243-2.126-4.854-1.644-7.333-5.736c-1.473-2.43-3.098-6.302-3.098-10.01
			V567.878L328.93,567.878z M203.818,64.455c0-4.172,1.508-6.723,3.648-8.863c1.528-1.528,5.505-3.946,8.267-3.946h1.192
			c8.264,0,14.894,11.074,14.894,19.66c0,7.702-5.577,13.404-13.107,13.404c-7.854,0-14.894-9.832-14.894-17.277V64.455
			L203.818,64.455z M302.712,557.695l10.124-0.658l1.199,0.117c7.993,0,13.703,6.224,13.703,14.298v3.873
			c0,4.414-2.729,9.48-5.419,11.262c-3.725,2.466-6.992,3.335-13.051,3.335h-1.191l-5.06-0.352l-0.004-6.5L302.712,557.695
			L302.712,557.695z M233.01,46.583c3.148-1.666,9.42-3.277,14.299-3.277h0.297c9.75,0,13.703,9.147,13.703,19.064v0.298
			c0,9.415-11.766,14.596-21.447,14.596L233.01,46.583L233.01,46.583z M78.708,296.804c0-7.69,1.248-18.445,2.495-25.506
			c0.678-3.837,1.719-8.046,2.271-11.73c0.537-3.583,2.091-7.83,2.658-11.045c1.208-6.848,4.625-14.798,6.746-21.255
			c1.98-6.031,5.502-13.945,8.272-19.431c13.394-26.525,26.821-44.447,46.743-64.368c33.71-33.71,90.595-64.119,158.102-64.119
			h2.383c33.127,0,70.175,9.781,92.448,20.747c27.338,13.459,46.154,26.255,66.548,46.649
			c34.877,34.878,66.204,90.483,66.204,160.187c0,69.867-31.392,125.373-66.354,160.334c-18.822,18.822-40.938,35.051-66.799,46.696
			c-24.507,11.035-57.186,20.552-92.644,20.552h-0.297c-68.507,0-125.126-29.652-159.294-63.821
			c-20.086-20.086-33.533-37.915-47.041-64.666c-2.949-5.84-6.118-13.248-8.352-19.649c-2.124-6.087-5.522-14.555-6.666-21.037
			c-0.603-3.417-2.106-7.535-2.688-11.312c-0.564-3.658-1.491-7.751-2.174-11.826c-1.24-7.39-2.56-16.998-2.56-25.143V296.804z"/>
		<path fill-rule="evenodd" clip-rule="evenodd" fill="#DAD8D9" d="M25.387,232.461c-1.54,2.298-6.365,28.398-7.086,33.426
			c-1.677,11.692-2.744,24.678-2.744,37.768v7.745c0,6.64,0.921,13.07,0.898,19.061c-0.016,3.981,1.221,13.92,1.955,18.003
			c1.041,5.791,5.167,30.235,6.978,32.939c0,3.623,5.801,19.602,7.103,23.578c2.167,6.617,5.868,15.748,8.878,21.804
			c7.273,14.635,13.287,26.554,21.905,39.757c3.604,5.522,8.626,12.99,12.826,17.855c2.396,2.775,4.46,5.799,6.855,8.635
			c2.383,2.821,4.961,5.417,7.294,8.196c7.699,9.174,21.879,22.989,31.474,30.188c6.003,4.503,11.239,8.858,17.459,13.224
			c6.096,4.276,12.258,8.354,18.772,12.207c12.834,7.594,26.689,14.517,41.355,20.308c27.678,10.929,64.553,20.214,103.109,20.214
			h7.15c37.944,0,75.616-9.195,102.893-20.133c15.14-6.07,28.009-12.525,41.38-20.281c6.15-3.569,13.1-7.895,18.617-12.064
			c2.951-2.23,6.043-4.332,8.989-6.502c2.946-2.172,5.771-4.746,8.639-6.852c8.229-6.046,25.275-22.152,31.52-30.143
			c1.71-2.188,5.147-5.997,7.136-8.055c2.31-2.391,4.733-5.94,6.866-8.624c4.559-5.735,8.856-11.783,12.983-17.996
			c4.221-6.354,7.51-12.713,11.556-19.125c3.876-6.143,7.021-13.957,10.367-20.614c3.189-6.343,6.414-14.859,8.904-21.78
			c1.309-3.644,7.182-20.536,7.182-23.796c2.16-3.226,6.104-28.964,7.271-35.624c2.048-11.708,2.559-27.182,2.559-40.634
			c0-87.981-40.647-159.057-84.672-203.082c-12.268-12.267-24.591-22.76-38.954-32.838c-12.535-8.795-30.719-20.296-45.75-26.336
			c-8.45-3.395-16.391-7.416-25.434-10.311c-8.853-2.834-18.215-6.11-27.818-8.227c-19.331-4.262-40.889-7.854-64.232-7.854h-2.384
			c-10.265,0-20.348,0.438-29.511,1.469c-9.295,1.044-18.709,1.795-27.209,3.77c-3.942,0.916-9.206,1.659-12.735,2.755
			c-3.338,1.037-8.974,2.62-12.176,3.313c-5.574,1.207-18.564,5.563-23.418,7.86c-3.539,1.674-7.4,2.773-11.023,4.466
			c-3.708,1.734-7.013,3.057-10.627,4.864c-7.165,3.584-13.816,6.874-20.462,10.815c-12.501,7.414-26.052,16.229-36.851,25.407
			c-23.528,19.996-41.837,39.112-59.299,65.216c-8.587,12.837-15.235,25.534-22.197,40.061c-3.437,7.172-6.043,14.303-9.02,21.96
			C31.344,211.824,25.387,229.418,25.387,232.461L25.387,232.461z M304.205,56.412c0-3.635-8.046-17.013-8.341-20.554h7.447
			c1.157,0,2.402,5.294,2.798,6.437c0.478,1.376,1.94,6.036,1.968,7.266h0.596l4.302-13.363l8.209-0.042l-9.595,19.182l-0.234,12.99
			h-7.149V56.412L304.205,56.412z M332.206,57.008c0-9.172,5.451-17.873,14.299-17.873h4.169c1.515,0,4.606,1.229,5.66,1.788
			l-1.821,5.648c-1.712-0.134-3.181-1.478-5.922-1.478c-5.58,0-8.639,5.588-8.639,11.319v1.192c0,4.78,3.815,8.34,8.639,8.34h2.083
			c0.805,0,0.821-0.142,1.49-0.297v5.361c0,0.686-0.208,0.894-0.893,0.894h-4.47C338.205,71.902,332.206,65.631,332.206,57.008
			L332.206,57.008z M354.564,552.773l20.242-4.245c-0.005,4.689,1.369,2.116-0.064,7.372c-0.583,2.139-1.638,4.652-2.368,6.866
			c-0.858,2.601-4.241,11.567-4.422,13.749l12.185-2.518l1.31,6.073l-21.53,4.522c-0.006-1.854-0.604-2.311-0.604-3.907
			c0-1.148,3.312-10.376,3.911-12.175c0.701-2.102,3.691-10.244,3.835-11.953l-11.579,2.273L354.564,552.773L354.564,552.773z
			 M419.188,68.03c0.083-0.98,2.052-5.66,2.681-5.66c1.583,0,15.17,7.939,18.171,8.639c-0.415,4.997-6.75,7.679-10.246,10.009
			c-1.922,1.28-11.407,7.001-11.797,8.459c1.17,0.272,10.724,4.862,10.724,5.362c0,0.195-2.108,4.79-2.382,5.362l-19.674-9.507
			c1.116-4.768,6.923-7.214,10.618-9.676c1.813-1.209,11.39-7.344,12.033-8.222L419.188,68.03L419.188,68.03z M250.792,584.543
			l5.566-31.838l17.438,3.091l-1.064,5.847l-10.227-1.537c-0.004,2.854-2.461,6.164,0.756,6.714
			c2.919,0.501,5.037,0.764,7.581,1.357l-0.771,5.677l-1.016-0.019c-2.143,0-6.25-1.488-8.936-1.488l-0.993,7.433l10.52,1.829
			l-0.786,5.946L250.792,584.543L250.792,584.543z M385.229,74.881c0-7.834,6.424-17.476,8.043-24.426l6.824,2.455
			c-0.938,4.066-7.719,18.537-7.719,21.079v2.979c0,1.137,1.948,2.681,3.276,2.681h0.895c3.786,0,5.754-7.594,7.03-10.843
			c1.6-4.072,3.11-8.989,4.884-12.689l6.856,2.671c-3.494,6.607-7.591,27.117-16.09,27.117h-3.575
			c-3.961,0-10.425-4.758-10.425-8.639V74.881L385.229,74.881z M176.115,77.562c0-3.875,2.842-8.819,5.063-10.427
			c1.924-1.394,7.084-5.063,10.129-5.063h2.085l1.171,5.962c-5.015-0.004-11.001,3.792-11.001,8.635v0.595
			c0,4.433,4.61,11.916,8.639,11.916h2.085c1.695,0,3.773-1.136,4.468-2.085l-2.971-5.962c-0.526,0.278-2.767,1.493-3.285,1.493
			c-0.538,0-2.5-4.285-2.681-5.064l9.748-4.643c0.758,3.076,7.232,13.633,7.232,15.665c0,0.781-5.805,4.541-6.844,5.07
			c-2.583,1.315-5.344,2.376-9.241,2.376h-0.596c-3.359,0-7.848-3.637-9.418-5.773c-1.413-1.923-4.582-7.711-4.582-10.61V77.562
			L176.115,77.562z M380.782,546.197l8.599-2.802l17.838,28.201l-7.373,2.3l-3.953-6.577l-7.075,2.387l0.655,7.697l-7.165,2.266
			l-1.616-30.853L380.782,546.197L380.782,546.197z M273.409,587.231l2.319-30.962l7.621,0.38l8.627,22.256l0.561-18.477
			l0.051-2.977h2.979l3.867,0.344l0.005,1.146l-2.19,30.974l-7.337-0.372c-0.619-2.558-3.141-7.917-4.298-10.818
			c-0.593-1.485-4.047-10.199-4.047-11.145v-1.191h-0.596v6.553l-0.91,13.702l0.017,2.086l-3.268-0.365l-3.286,0.067
			L273.409,587.231L273.409,587.231z M363.187,49.263c0-1.363,0.871-6.255,2.085-6.255h0.893c5.586,0,17.278,4.031,17.278,9.234
			v2.085c0,4.451-3.312,8.546-7.447,8.638c3.623,5.411,2.086,6.029,2.086,13.703v2.382c-1.756,0-3.704-0.887-5.547-1.306
			c-2.486-0.564-1.604-2.178-1.604-5.247c0-6.299,1.21-7.981-4.17-9.235l-3.125,11.876l-6.975-1.557l6.036-23.397L363.187,49.263
			L363.187,49.263z M214.532,575.322l10.542-30.644c1.263,0.283,6.678,2.05,7.64,2.05h0.894v10.724l-0.569,11.917l10.741-19.639
			l8.563,2.182l-6.509,31.757l-1.523-0.553l-3.528-0.752l-1.452-0.619l5.112-22.847l-11.715,20.604l-5.354-1.286l-0.021-4.382
			l0.509-18.471l-6.884,21.412l-0.775,0.038C218.715,576.814,216.391,575.366,214.532,575.322L214.532,575.322z M265.48,51.944
			c0-7.621,5.104-14.894,12.213-14.894h0.895l3.571,0.327c3.745,2.476,4.209,1.3,7.1,5.684c1.199,1.819,3.032,6.888,3.032,9.777
			v3.873c0,7.235-5.068,13.405-12.213,13.405h-2.681c-6.659,0-11.915-9.02-11.915-16.085V51.944L265.48,51.944z M328.93,567.878
			c0-6.404,5.905-13.405,12.214-13.405h1.19c9.303,0,13.405,9.118,13.405,18.767v1.192c0,3.888-1.859,7.501-3.789,9.616
			c-1.361,1.49-6.331,4.161-9.319,3.789l-3.271-0.341c-3.243-2.126-4.854-1.644-7.333-5.736c-1.473-2.43-3.098-6.302-3.098-10.01
			V567.878L328.93,567.878z M203.818,64.455c0-4.172,1.508-6.723,3.648-8.863c1.528-1.528,5.505-3.946,8.267-3.946h1.192
			c8.264,0,14.894,11.074,14.894,19.66c0,7.702-5.577,13.404-13.107,13.404c-7.854,0-14.894-9.832-14.894-17.277V64.455
			L203.818,64.455z M302.712,557.695l10.124-0.658l1.199,0.117c7.993,0,13.703,6.224,13.703,14.298v3.873
			c0,4.414-2.729,9.48-5.419,11.262c-3.725,2.466-6.992,3.335-13.051,3.335h-1.191l-5.06-0.352l-0.004-6.5L302.712,557.695
			L302.712,557.695z M233.01,46.583c3.148-1.666,9.42-3.277,14.299-3.277h0.297c9.75,0,13.703,9.147,13.703,19.064v0.298
			c0,9.415-11.766,14.596-21.447,14.596L233.01,46.583L233.01,46.583z M78.708,296.804c0-7.69,1.248-18.445,2.495-25.506
			c0.678-3.837,1.719-8.046,2.271-11.73c0.537-3.583,2.091-7.83,2.658-11.045c1.208-6.848,4.625-14.798,6.746-21.255
			c1.98-6.031,5.502-13.945,8.272-19.431c13.394-26.525,26.821-44.447,46.743-64.368c33.71-33.71,90.595-64.119,158.102-64.119
			h2.383c33.127,0,70.175,9.781,92.448,20.747c27.338,13.459,46.154,26.255,66.548,46.649
			c34.877,34.878,66.204,90.483,66.204,160.187c0,69.867-31.392,125.373-66.354,160.334c-18.822,18.822-40.938,35.051-66.799,46.696
			c-24.507,11.035-57.186,20.552-92.644,20.552h-0.297c-68.507,0-125.126-29.652-159.294-63.821
			c-20.086-20.086-33.533-37.915-47.041-64.666c-2.949-5.84-6.118-13.248-8.352-19.649c-2.124-6.087-5.522-14.555-6.666-21.037
			c-0.603-3.417-2.106-7.535-2.688-11.312c-0.564-3.658-1.491-7.751-2.174-11.826c-1.24-7.39-2.56-16.998-2.56-25.143V296.804z"/>
		<path fill-rule="evenodd" clip-rule="evenodd" fill="#352F29" d="M78.708,296.804v20.256c0,8.145,1.32,17.753,2.56,25.143
			c0.684,4.075,1.61,8.168,2.174,11.826c0.583,3.777,2.086,7.896,2.688,11.312c1.144,6.481,4.542,14.95,6.666,21.037
			c2.234,6.402,5.403,13.81,8.352,19.649c13.507,26.751,26.954,44.58,47.041,64.666c34.168,34.169,90.787,63.821,159.294,63.821
			h0.297c35.458,0,68.137-9.517,92.644-20.552c25.86-11.646,47.977-27.874,66.799-46.696
			c34.962-34.962,66.354-90.468,66.354-160.334c0-69.704-31.327-125.309-66.204-160.187c-20.394-20.394-39.21-33.189-66.548-46.649
			C378.55,89.13,341.502,79.35,308.375,79.35h-2.383c-67.506,0-124.391,30.408-158.102,64.119
			c-19.921,19.921-33.349,37.843-46.743,64.368c-2.77,5.486-6.292,13.4-8.272,19.431c-2.121,6.457-5.538,14.407-6.746,21.255
			c-0.567,3.215-2.121,7.461-2.658,11.045c-0.552,3.684-1.592,7.893-2.271,11.73C79.955,278.359,78.708,289.114,78.708,296.804
			L78.708,296.804z M85.856,306.932c0-121.246,98.888-220.136,220.136-220.136c121.248,0,220.136,98.89,220.136,220.136
			c0,121.247-98.888,220.136-220.136,220.136C184.745,527.068,85.856,428.179,85.856,306.932z"/>
		<path fill-rule="evenodd" clip-rule="evenodd" fill="#352F29" d="M233.01,46.583l6.852,30.682c9.682,0,21.447-5.181,21.447-14.596
			V62.37c0-9.917-3.952-19.064-13.703-19.064h-0.297C242.431,43.306,236.158,44.917,233.01,46.583L233.01,46.583z M241.352,49.859
			c1.125-0.262,1.863-0.596,3.277-0.596h1.489c4.509,0,7.448,6.364,7.448,11.021v3.277c0,1.696-1.231,3.877-2.155,4.697
			c-0.651,0.578-3.843,2.154-4.697,2.154h-0.894L241.352,49.859z"/>
		<path fill-rule="evenodd" clip-rule="evenodd" fill="#352F29" d="M302.712,557.695l0.302,25.375l0.004,6.5l5.06,0.352h1.191
			c6.059,0,9.326-0.869,13.051-3.335c2.69-1.781,5.419-6.848,5.419-11.262v-3.873c0-8.074-5.71-14.298-13.703-14.298l-1.199-0.117
			L302.712,557.695L302.712,557.695z M310.163,563.111c0.36-0.139,1.02-0.298,1.488-0.298h1.49c4.744,0,6.852,4.846,6.852,9.831
			v2.383c0,4.255-2.762,8.937-6.554,8.937h-3.276V563.111z"/>
		<path fill-rule="evenodd" clip-rule="evenodd" fill="#352F29" d="M203.818,64.455v2.979c0,7.445,7.04,17.277,14.894,17.277
			c7.53,0,13.107-5.702,13.107-13.404c0-8.586-6.63-19.66-14.894-19.66h-1.192c-2.762,0-6.739,2.418-8.267,3.946
			C205.326,57.732,203.818,60.283,203.818,64.455L203.818,64.455z M210.968,62.966c0-2.106,1.732-4.766,3.872-4.766h1.191
			c4.548,0,8.341,9.889,8.341,15.489v0.298c0,2.254-2.231,4.468-4.766,4.468C214.959,78.456,210.968,68.762,210.968,62.966z"/>
		<path fill-rule="evenodd" clip-rule="evenodd" fill="#352F29" d="M328.93,567.878v3.872c0,3.708,1.625,7.58,3.098,10.01
			c2.479,4.093,4.09,3.61,7.333,5.736l3.271,0.341c2.988,0.372,7.958-2.299,9.319-3.789c1.93-2.115,3.789-5.729,3.789-9.616v-1.192
			c0-9.648-4.103-18.767-13.405-18.767h-1.19C334.835,554.473,328.93,561.474,328.93,567.878L328.93,567.878z M336.377,568.474
			c0-3.372,1.618-7.745,4.767-7.745h0.892c3.494,0,5.958,6.422,5.958,10.128v5.064c0,2.452-2.044,5.659-4.468,5.659h-0.895
			c-3.984,0-6.254-7.493-6.254-11.915V568.474z"/>
		<path fill-rule="evenodd" clip-rule="evenodd" fill="#352F29" d="M265.48,51.944v2.085c0,7.065,5.256,16.085,11.915,16.085h2.681
			c7.146,0,12.213-6.17,12.213-13.405v-3.873c0-2.89-1.833-7.958-3.032-9.777c-2.89-4.383-3.355-3.208-7.1-5.684l-3.571-0.327
			h-0.895C270.584,37.05,265.48,44.324,265.48,51.944L265.48,51.944z M272.927,50.753c0-3.398,1.673-7.447,5.064-7.447h0.596
			c3.621,0,5.958,6.509,5.958,10.426v3.575c0,3.203-1.5,6.851-4.469,6.851h-0.894C274.811,64.157,272.927,55.737,272.927,50.753z"/>
		<path fill-rule="evenodd" clip-rule="evenodd" fill="#352F29" d="M214.532,575.322c1.859,0.044,4.184,1.492,5.67,1.492
			l0.775-0.038l6.884-21.412l-0.509,18.471l0.021,4.382l5.354,1.286l11.715-20.604l-5.112,22.847l1.452,0.619l3.528,0.752
			l1.523,0.553l6.509-31.757l-8.563-2.182l-10.741,19.639l0.569-11.917v-10.724h-0.894c-0.961,0-6.377-1.767-7.64-2.05
			L214.532,575.322z"/>
		<path fill-rule="evenodd" clip-rule="evenodd" fill="#352F29" d="M363.187,49.263l-0.49,0.922l-6.036,23.397l6.975,1.557
			l3.125-11.876c5.38,1.253,4.17,2.936,4.17,9.235c0,3.069-0.882,4.683,1.604,5.247c1.843,0.419,3.791,1.306,5.547,1.306v-2.382
			c0-7.674,1.537-8.292-2.086-13.703c4.136-0.092,7.447-4.187,7.447-8.638v-2.085c0-5.204-11.692-9.234-17.278-9.234h-0.893
			C364.058,43.008,363.187,47.9,363.187,49.263L363.187,49.263z M368.154,58.174l2.286-8.584c2.239-0.029,5.555,1.228,5.555,3.546
			v1.787c0,2.145-2.166,3.873-4.47,3.873C370.241,58.795,370.09,58.2,368.154,58.174z"/>
		<path fill-rule="evenodd" clip-rule="evenodd" fill="#352F29" d="M273.409,587.231l0.114,1.2l3.286-0.067l3.268,0.365
			l-0.017-2.086l0.91-13.702v-6.553h0.596v1.191c0,0.945,3.455,9.659,4.047,11.145c1.157,2.901,3.679,8.261,4.298,10.818
			l7.337,0.372l2.19-30.974l-0.005-1.146l-3.867-0.344h-2.979l-0.051,2.977l-0.561,18.477l-8.627-22.256l-7.621-0.38
			L273.409,587.231z"/>
		<path fill-rule="evenodd" clip-rule="evenodd" fill="#352F29" d="M380.782,546.197l-0.091,2.619l1.616,30.853l7.165-2.266
			l-0.655-7.697l7.075-2.387l3.953,6.577l7.373-2.3l-17.838-28.201L380.782,546.197L380.782,546.197z M387.914,564.005l-1.282-12.8
			l6.754,11.245L387.914,564.005z"/>
		<path fill-rule="evenodd" clip-rule="evenodd" fill="#352F29" d="M176.115,77.562v2.085c0,2.899,3.169,8.687,4.582,10.61
			c1.57,2.136,6.059,5.773,9.418,5.773h0.596c3.897,0,6.659-1.061,9.241-2.376c1.039-0.529,6.844-4.29,6.844-5.07
			c0-2.032-6.474-12.589-7.232-15.665l-9.748,4.643c0.182,0.779,2.144,5.064,2.681,5.064c0.518,0,2.759-1.215,3.285-1.493
			l2.971,5.962c-0.695,0.949-2.773,2.085-4.468,2.085h-2.085c-4.029,0-8.639-7.482-8.639-11.916v-0.595
			c0-4.842,5.986-8.639,11.001-8.635l-1.171-5.962h-2.085c-3.045,0-8.205,3.669-10.129,5.063
			C178.958,68.743,176.115,73.687,176.115,77.562z"/>
		<path fill-rule="evenodd" clip-rule="evenodd" fill="#352F29" d="M385.229,74.881v2.383c0,3.881,6.464,8.639,10.425,8.639h3.575
			c8.499,0,12.596-20.51,16.09-27.117l-6.856-2.671c-1.773,3.7-3.284,8.618-4.884,12.689c-1.276,3.249-3.244,10.843-7.03,10.843
			h-0.895c-1.328,0-3.276-1.544-3.276-2.681v-2.979c0-2.542,6.781-17.012,7.719-21.079l-6.824-2.455
			C391.653,57.405,385.229,67.047,385.229,74.881z"/>
		<path fill-rule="evenodd" clip-rule="evenodd" fill="#352F29" d="M250.792,584.543l18.067,3.012l0.786-5.946l-10.52-1.829
			l0.993-7.433c2.686,0,6.793,1.488,8.936,1.488l1.016,0.019l0.771-5.677c-2.543-0.594-4.661-0.856-7.581-1.357
			c-3.217-0.55-0.76-3.86-0.756-6.714l10.227,1.537l1.064-5.847l-17.438-3.091L250.792,584.543z"/>
		<path fill-rule="evenodd" clip-rule="evenodd" fill="#352F29" d="M419.188,68.03l10.128,4.767
			c-0.644,0.878-10.22,7.012-12.033,8.222c-3.695,2.462-9.502,4.909-10.618,9.676l19.674,9.507c0.273-0.572,2.382-5.167,2.382-5.362
			c0-0.5-9.554-5.089-10.724-5.362c0.39-1.458,9.875-7.179,11.797-8.459c3.496-2.331,9.831-5.013,10.246-10.009
			c-3.001-0.699-16.588-8.639-18.171-8.639C421.239,62.37,419.271,67.049,419.188,68.03z"/>
		<path fill-rule="evenodd" clip-rule="evenodd" fill="#352F29" d="M354.564,552.773l0.915,6.059l11.579-2.273
			c-0.144,1.709-3.134,9.852-3.835,11.953c-0.6,1.799-3.911,11.026-3.911,12.175c0,1.597,0.598,2.053,0.604,3.907l21.53-4.522
			l-1.31-6.073l-12.185,2.518c0.181-2.182,3.563-11.148,4.422-13.749c0.73-2.214,1.785-4.728,2.368-6.866
			c1.434-5.256,0.06-2.683,0.064-7.372L354.564,552.773z"/>
		<path fill-rule="evenodd" clip-rule="evenodd" fill="#352F29" d="M332.206,57.008c0,8.623,5.999,14.894,14.596,14.894h4.47
			c0.685,0,0.893-0.208,0.893-0.894v-5.361c-0.669,0.155-0.686,0.297-1.49,0.297h-2.083c-4.823,0-8.639-3.56-8.639-8.34v-1.192
			c0-5.73,3.059-11.319,8.639-11.319c2.741,0,4.21,1.344,5.922,1.478l1.821-5.648c-1.054-0.559-4.146-1.788-5.66-1.788h-4.169
			C337.657,39.135,332.206,47.836,332.206,57.008z"/>
		<path fill-rule="evenodd" clip-rule="evenodd" fill="#352F29" d="M304.205,56.412v11.916h7.149l0.234-12.99l9.595-19.182
			l-8.209,0.042l-4.302,13.363h-0.596c-0.027-1.23-1.49-5.89-1.968-7.266c-0.396-1.143-1.642-6.437-2.798-6.437h-7.447
			C296.159,39.399,304.205,52.777,304.205,56.412z"/>
		<path fill-rule="evenodd" clip-rule="evenodd" fill="#DAD8D9" d="M336.377,568.474v1.191c0,4.422,2.27,11.915,6.254,11.915h0.895
			c2.424,0,4.468-3.207,4.468-5.659v-5.064c0-3.706-2.464-10.128-5.958-10.128h-0.892
			C337.995,560.729,336.377,565.102,336.377,568.474z"/>
		<path fill-rule="evenodd" clip-rule="evenodd" fill="#DAD8D9" d="M272.927,50.753c0,4.984,1.884,13.404,6.255,13.404h0.894
			c2.968,0,4.469-3.648,4.469-6.851v-3.575c0-3.917-2.337-10.426-5.958-10.426h-0.596C274.6,43.306,272.927,47.355,272.927,50.753z"
			/>
		<path fill-rule="evenodd" clip-rule="evenodd" fill="#DAD8D9" d="M210.968,62.966c0,5.796,3.991,15.49,8.638,15.49
			c2.535,0,4.766-2.214,4.766-4.468v-0.298c0-5.6-3.793-15.489-8.341-15.489h-1.191C212.7,58.2,210.968,60.859,210.968,62.966z"/>
		<path fill-rule="evenodd" clip-rule="evenodd" fill="#DAD8D9" d="M310.163,563.111v20.853h3.276c3.792,0,6.554-4.682,6.554-8.937
			v-2.383c0-4.985-2.107-9.831-6.852-9.831h-1.49C311.183,562.813,310.523,562.973,310.163,563.111z"/>
		<path fill-rule="evenodd" clip-rule="evenodd" fill="#DAD8D9" d="M241.352,49.859l4.468,20.554h0.894
			c0.854,0,4.045-1.576,4.697-2.154c0.924-0.82,2.155-3,2.155-4.697v-3.277c0-4.657-2.938-11.021-7.448-11.021h-1.489
			C243.215,49.263,242.477,49.598,241.352,49.859z"/>
		<path fill-rule="evenodd" clip-rule="evenodd" fill="#DAD8D9" d="M368.154,58.174c1.936,0.026,2.087,0.622,3.371,0.622
			c2.304,0,4.47-1.728,4.47-3.873v-1.787c0-2.318-3.315-3.575-5.555-3.546L368.154,58.174z"/>
		<polygon fill-rule="evenodd" clip-rule="evenodd" fill="#DAD8D9" points="387.914,564.005 393.386,562.45 386.632,551.205 		"/>
	</g>
	<g>
		<path fill-rule="evenodd" clip-rule="evenodd" fill="#0081C3" d="M125.147,170.242c0.045,0.073,0.608,31.703,0.605,34.517
			c-0.01,11.715,0.838,22.921,1.002,34.323c0.034,2.337,0.22,5.735,0.41,8.271c0.2,2.683,0.196,5.705,0.404,8.477
			c0.369,4.934,0.506,11.726,1.255,16.508c0.682,4.354,1.327,11.479,1.573,15.99c0.28,5.146,1.42,10.684,2.025,15.738
			c0.616,5.146,1.882,10.446,2.398,15.164c0.562,5.138,2.326,10.189,2.85,14.914c0.201,1.811,1.176,5.133,1.652,7.029
			c0.572,2.28,1.153,4.838,1.734,7.148c1.169,4.654,2.729,9.222,3.999,13.765c1.177,4.211,2.856,9.172,4.438,13.125
			c1.71,4.273,3.115,8.659,5.024,12.74c1.917,4.101,3.505,8.046,5.489,12.074c1.976,4.015,4.183,7.765,6.131,11.634
			c1.872,3.72,4.361,7.515,6.464,11.1c1.902,3.244,4.771,7.756,7.026,10.739c2.547,3.369,4.774,6.813,7.358,10.204
			c2.547,3.344,5.44,6.68,7.819,9.946c2.155,2.96,5.591,6.626,8.13,9.435c2.861,3.165,5.532,6.213,8.473,9.293
			c2.868,3.004,5.837,5.826,8.787,8.776c3.012,3.012,6.146,5.71,9.085,8.679c2.771,2.799,6.235,5.717,9.286,8.278
			c3.209,2.695,6.204,5.658,9.504,8.262c6.619,5.222,12.917,10.517,19.677,15.652c6.707,5.096,13.447,10.182,20.339,14.99
			c2.304,1.607,20.326,13.898,20.793,14.537h0.404c1.985-1.726,6.134-4.299,8.479-5.854c2.634-1.748,5.9-3.962,8.426-5.909
			c5.401-4.168,11.17-8.077,16.693-12.175c5.327-3.951,11.375-8.294,16.32-12.549c2.606-2.243,5.241-4.22,7.877-6.457
			c2.461-2.088,5.387-4.769,7.901-6.633c2.04-1.512,5.82-4.881,7.646-6.688c2.428-2.404,5.042-4.441,7.466-6.866
			c4.852-4.851,9.661-9.456,14.538-14.332c2.438-2.438,4.592-4.871,6.97-7.363c2.347-2.457,4.428-5.37,6.756-7.779
			c4.667-4.832,8.624-10.729,12.839-16.03c3.806-4.787,8.63-11.62,11.74-16.926c1.789-3.049,3.61-5.725,5.387-8.945
			c1.64-2.967,3.438-6.467,5.198-9.338c1.432-2.332,3.749-6.938,4.83-9.502c1.359-3.222,3.397-6.792,4.505-10.031
			c1.146-3.349,3.106-6.835,4.115-10.217c0.539-1.813,1.386-3.427,1.932-5.334c0.446-1.555,1.232-3.944,1.839-5.43
			c1.359-3.331,2.295-7.312,3.378-10.954c0.944-3.177,2.675-8.193,3.146-11.389c0.538-3.648,2.005-7.731,2.752-11.581
			c0.443-2.294,0.766-3.892,1.203-6.064c0.359-1.788,0.644-4.604,1.118-6.148c0.88-2.858,1.479-8.844,2.077-12.255
			c0.723-4.105,1.233-8.676,1.727-12.808c0.476-3.972,1.372-8.803,1.413-12.921c0.015-1.545,0.478-4.708,0.614-6.653
			c0.147-2.135,0.604-4.362,0.606-6.66l0.805-0.405v-7.469c0-4.534,0.629-8.359,0.606-12.92c-0.021-3.983,0.432-8.669,0.6-12.926
			c0.327-8.41,1.019-17.644,1.017-26.234c-0.002-4.396,0.797-53.679,0.807-53.694v-48.244h-367.46V170.242z"/>
		<path fill-rule="evenodd" clip-rule="evenodd" fill="#FDFDFE" d="M423.355,221.109l-240.263,68.026
			c-1.144,0.766-9.475,2.773-11.534,3.406c-3.87,1.188-7.849,2.166-7.849,7.292v4.239c0,7.517,0.606,14.781,0.606,22.407
			c0,3.705,0.202,7.354,0.202,11.304c0,1.751-0.197,4,0.236,5.416c0.334,1.094,1.648,2.861,2.994,2.861
			c2.657,0.001,6.069-1.398,8.483-2.015c1.616-0.414,6.957-2.225,8.235-2.367l47.045-13.312l100.543-28.474l36.989-10.554
			c0.745,0,7.655-1.978,8.56-2.342c0.967-0.39,3.138-0.899,4.241-1.21c1.579-0.446,2.669-0.774,4.318-1.133
			c2.367-0.514,5.789-1.712,8.441-2.461c2.974-0.839,5.71-1.586,8.648-2.456c11.436-3.386,22.68-6.42,34.155-9.656
			c5.737-1.619,11.261-3.243,17-4.803c8.664-2.354,7.846-4.028,7.705-13.881c-0.105-7.261-0.396-14.269-0.396-21.404
			c0-3.781-0.201-6.883-0.201-10.699c0-3.746,0.006-7.469-3.636-7.469h-0.404c-2.125,0-14.232,3.729-17.034,4.567
			C437.945,217.138,424.923,221.109,423.355,221.109z"/>
		<path fill-rule="evenodd" clip-rule="evenodd" fill="#FDFDFE" d="M145.943,120.382v16.553c0,0.824,0.877,2.22,1.615,2.22h325.868
			c1.372,0,2.02-1.028,2.02-2.422v-16.754c0-0.679-0.905-1.615-1.817-1.615H147.961
			C146.946,118.364,145.943,119.367,145.943,120.382z"/>
		<path fill-rule="evenodd" clip-rule="evenodd" fill="#FDFDFE" d="M304.439,318.017l-0.004,211.936
			c0,0.507,4.166,3.432,4.846,3.432c0.071,0,3.634-2.347,3.634-2.826l-0.021-214.854L304.439,318.017z"/>
		<path fill-rule="evenodd" clip-rule="evenodd" fill="#FDFDFE" d="M336.539,309.523l0.076,204.179l8.402-6.358V306.899
			c-1.241,0.028-3.14,0.747-4.36,1.09C339.869,308.211,336.539,308.734,336.539,309.523z"/>
		<polygon fill-rule="evenodd" clip-rule="evenodd" fill="#FDFDFE" points="368.675,300.167 368.716,487.646 377.321,480.093 
			377.327,297.836 		"/>
		<path fill-rule="evenodd" clip-rule="evenodd" fill="#FDFDFE" d="M272.162,326.99l-0.03,179.142c0,0.59,7.625,6.464,8.479,6.662
			l-0.013-188.176L272.162,326.99z"/>
		<path fill-rule="evenodd" clip-rule="evenodd" fill="#FDFDFE" d="M400.921,291.269l0.022,164.804
			c0.861-0.576,8.682-9.538,8.682-10.093l-0.022-157.129L400.921,291.269z"/>
		<path fill-rule="evenodd" clip-rule="evenodd" fill="#FDFDFE" d="M239.827,336.37l0.087,143.021l8.595,7.566V333.545
			c-1.271,0.295-3.25,0.792-4.442,1.211C243.289,335.028,239.827,335.588,239.827,336.37z"/>
		<path fill-rule="evenodd" clip-rule="evenodd" fill="#FDFDFE" d="M143.318,263.903c0,4.947,0.681,10.94,1.195,15.56
			c0.131,1.182,0.284,7.017,1.146,6.985c1.021-0.037,6.341-1.398,6.341-2.156V145.211h-8.682V263.903z"/>
		<polygon fill-rule="evenodd" clip-rule="evenodd" fill="#FDFDFE" points="175.622,278.034 184.102,275.813 184.102,145.211 
			175.622,145.211 		"/>
		<polygon fill-rule="evenodd" clip-rule="evenodd" fill="#FDFDFE" points="207.725,269.354 216.406,266.932 216.406,145.211 
			207.725,145.211 		"/>
		<path fill-rule="evenodd" clip-rule="evenodd" fill="#FDFDFE" d="M433.258,282.309l-0.008,130.768
			c1.041-1.2,8.479-14.198,8.479-15.543l-0.025-117.571L433.258,282.309z"/>
		<polygon fill-rule="evenodd" clip-rule="evenodd" fill="#FDFDFE" points="239.827,260.27 248.509,258.05 248.509,145.211 
			239.827,145.211 		"/>
		<path fill-rule="evenodd" clip-rule="evenodd" fill="#FDFDFE" d="M207.724,344.843l0.001,100.732c0,0.54,7.839,9.529,8.682,10.094
			l0.004-113.229L207.724,344.843z"/>
		<path fill-rule="evenodd" clip-rule="evenodd" fill="#FDFDFE" d="M272.131,251.388c1.211-0.581,8.479-1.783,8.479-2.826V145.211
			h-8.479V251.388z"/>
		<path fill-rule="evenodd" clip-rule="evenodd" fill="#0081C3" d="M231.751,283.484c0.108,1.292,1.758,6.661,2.247,8.25
			c0.801,2.61,1.385,5.555,2.283,8.215c0.917,2.72,1.419,5.435,2.26,8.236c0.272,0.905,2.175,8.201,2.498,8.201
			c0.905,0,14.986-4.156,15.952-4.641c4.823-2.423,7.873-5.691,7.873-12.92c0-8.809-5.676-19.581-14.334-19.581h-2.221
			c-1.144,0-6.833,1.685-8.202,2.095C238.48,281.826,233.156,283.453,231.751,283.484z"/>
		<path fill-rule="evenodd" clip-rule="evenodd" fill="#FDFDFE" d="M304.436,242.507c0.949-0.456,3.11-0.992,4.32-1.333
			c0.941-0.266,4.159-0.486,4.159-1.493v-94.47h-8.479V242.507z"/>
		<polygon fill-rule="evenodd" clip-rule="evenodd" fill="#FDFDFE" points="336.539,233.423 345.018,231.202 345.018,145.211 
			336.539,145.211 		"/>
		<polygon fill-rule="evenodd" clip-rule="evenodd" fill="#FDFDFE" points="368.64,224.541 377.321,222.321 377.321,145.211 
			368.64,145.211 		"/>
		<path fill-rule="evenodd" clip-rule="evenodd" fill="#FDFDFE" d="M400.943,215.659c1.476-0.343,2.885-0.923,4.426-1.227
			c0.857-0.169,4.256-0.686,4.256-1.599v-67.623h-8.682V215.659z"/>
		<path fill-rule="evenodd" clip-rule="evenodd" fill="#0081C3" d="M280.208,280.254v3.23c0,8.268,7.378,17.359,15.95,17.359h1.413
			c3.697,0,7.959-1.837,10.303-3.223c1.45-0.858,7.06-5.066,7.06-6.668c0-0.627-1.4-5.2-1.695-6.379
			c-0.479-1.918-1.585-4.72-1.736-6.54c-1.535,0.034-5.541,1.431-7.224,1.861c-0.71,0.183-7.111,1.852-7.111,2.176
			c0,0.532,1.252,5.248,1.615,5.248c2,0,5.374-1.77,7.425-1.804l1.055,4.024c-1.557,2.325-5.391,5.249-9.288,5.249h-0.403
			c-6.893,0-10.499-7.449-10.499-14.332v-0.605c0-4.509,4.721-8.276,9.489-8.276h1.817c1.239,0,4.097,2.143,4.475,3.5l6.428-3.097
			c-2.587-3.862-4.807-6.661-11.307-6.661h-0.403c-4.12,0-9.653,2.285-11.86,4.291C283.214,271.875,280.208,275.642,280.208,280.254
			z"/>
		<path fill-rule="evenodd" clip-rule="evenodd" fill="#0081C3" d="M381.158,242.103l-3.608,36.428l7.04-1.91l0.015-1.008
			l0.61-7.198l13.264-3.657l-0.048,0.223l4.949,6.437l7.055-1.861c-0.153-0.571-9.934-13.178-11.143-14.7
			c-1.146-1.442-10.871-14.57-11.27-14.57C387.028,240.286,382.688,242.069,381.158,242.103z"/>
		<path fill-rule="evenodd" clip-rule="evenodd" fill="#FDFDFE" d="M433.25,206.576c1.319,0,3.133-0.719,4.365-1.084
			c0.828-0.246,4.113-0.702,4.113-1.54v-58.741h-8.479V206.576z"/>
		<path fill-rule="evenodd" clip-rule="evenodd" fill="#0081C3" d="M188.544,306.495v0.404c0,4.958,1.82,10.357,3.981,13.178
			c2.11,2.753,6.119,6.403,10.758,6.403h2.423c6.865,0,13.931-5.964,13.931-12.919v-2.221h-6.865c0,5.127-2.038,9.084-7.066,9.083
			l-1.009,0c-5.884,0-9.288-8.47-9.288-14.332v-1.615c0-3.563,3.743-7.064,7.471-7.064h1.009c3.953,0,5.585,3.633,5.855,3.633
			c0.375,0,5.512-2.865,6.057-3.229c-1.681-3.176-5.674-6.662-10.499-6.662h-1.009C195.728,291.154,188.544,297.698,188.544,306.495
			z"/>
		<path fill-rule="evenodd" clip-rule="evenodd" fill="#0081C3" d="M328.461,267.537v1.413c0,4.805,2.4,10.212,4.523,13.041
			c2.424,3.233,6.426,5.732,12.033,5.732c8.588,0,14.738-6.204,14.738-15.14h-7.065v1.413c0,4.357-3.059,7.671-7.472,7.671l-0.402,0
			c-3.562,0-5.96-2.605-7.072-5.042c-0.819-1.794-2.685-6.982-2.469-9.698l0.253-2.822c1.139-1.699,0.944-2.416,2.786-3.874
			c1.084-0.857,3.217-1.778,5.089-1.778h0.807c1.847,0,4.846,2.321,5.333,3.986l6.175-3.582c-2.064-3.083-5.206-6.46-10.296-6.46
			h-0.808C335.775,252.397,328.461,258.685,328.461,267.537z"/>
		<path fill-rule="evenodd" clip-rule="evenodd" fill="#FDFDFE" d="M175.638,353.786l-0.016,43.545
			c0,1.115,7.706,14.774,8.48,15.342l0.019-61.298L175.638,353.786z"/>
		<polygon fill-rule="evenodd" clip-rule="evenodd" fill="#FDFDFE" points="465.351,197.694 474.032,195.474 474.032,145.211 
			465.351,145.211 		"/>
		<path fill-rule="evenodd" clip-rule="evenodd" fill="#0081C3" d="M415.313,232.737c0.059,0.991,0.557,2.768,0.901,3.788
			c0.728,2.154-0.09,2.077,2.625,1.263c1.541-0.462,6.586-2.049,7.621-2.11l2.721,10.284l0.301,0.619l4.575,16.313
			c0.734-0.172,6.46-1.659,6.46-2.019c0-1.226-2.976-11.454-3.557-13.4c-0.5-1.672-3.71-12.434-3.71-13.246l0.037-0.463l9.556-2.593
			l-1.529-5.666L415.313,232.737z"/>
		<path fill-rule="evenodd" clip-rule="evenodd" fill="#FDFDFE" d="M240.029,287.319l5.855,21.599
			c1.303-0.029,7.193-1.775,8.21-2.288c2.632-1.327,3.904-2.741,3.904-6.594c0-3.041-1.413-7.409-2.393-9.518
			c-1.271-2.735-2.96-5.218-6.896-5.218C245.731,285.3,242.567,287.108,240.029,287.319z"/>
		<path fill-rule="evenodd" clip-rule="evenodd" fill="#FDFDFE" d="M465.354,273.405l-0.004,56.304
			c0.823-1.299,4.621-24.785,5.055-28.456c0.552-4.692,1.541-10.012,1.81-14.943c0.13-2.373,0.705-4.929,0.805-7.472
			c0.061-1.476,0.504-6.356,0.782-7.771L465.354,273.405z"/>
		<polygon fill-rule="evenodd" clip-rule="evenodd" fill="#FDFDFE" points="386.609,250.177 385.794,262.26 394.59,259.79 
			386.8,249.029 386.609,249.168 		"/>
		<path fill-rule="evenodd" clip-rule="evenodd" fill="#0081C3" d="M272.333,301.247c0,0.488,1.421,5.653,1.604,6.017l6.316-1.589
			l-1.662-6.447C277.762,299.297,272.333,300.828,272.333,301.247z"/>
		<path fill-rule="evenodd" clip-rule="evenodd" fill="#0081C3" d="M412.25,262.089c0,0.992,0.832,3.671,1.138,4.715
			c0.657,2.261,1.159,1.548,3.627,0.853c2.407-0.677,3.304-0.239,2.791-2.424c-0.393-1.669-0.92-3.143-1.315-4.835L412.25,262.089z"
			/>
		<path fill-rule="evenodd" clip-rule="evenodd" fill="#0081C3" d="M320.588,287.521l1.615,6.257c1.703-0.142,3.18-0.88,4.651-1.202
			c2.71-0.593,1.396-1.29,0.843-3.483c-0.559-2.209-0.114-3.572-2.387-2.906C323.651,286.673,322.288,287.125,320.588,287.521z"/>
		<path fill-rule="evenodd" clip-rule="evenodd" fill="#0081C3" d="M366.421,274.813l1.612,6.248c0.743,0,6.049-1.435,6.194-1.697
			c0.19-0.348-1.37-5.404-1.564-6.232L366.421,274.813z"/>
		<polygon fill-rule="evenodd" clip-rule="evenodd" fill="#0081C3" points="226.523,313.636 228.114,320.009 234.398,318.197 
			232.743,311.882 		"/>
	</g>
</g>
</svg>
